<?xml version="1.0" encoding="UTF-8" standalone="no"?>
<!DOCTYPE svg PUBLIC "-//W3C//DTD SVG 1.1//EN"
 "http://www.w3.org/Graphics/SVG/1.1/DTD/svg11.dtd">
<!-- Generated by graphviz version 2.40.1 (20161225.0304)
 -->
<!-- Title: BDD Pages: 1 -->
<svg width="281pt" height="580pt"
 viewBox="0.00 0.00 281.35 579.78" xmlns="http://www.w3.org/2000/svg" xmlns:xlink="http://www.w3.org/1999/xlink">
<g id="graph0" class="graph" transform="scale(1 1) rotate(0) translate(4 575.7751)">
<title>BDD</title>
<polygon fill="#ffffff" stroke="transparent" points="-4,4 -4,-575.7751 277.3478,-575.7751 277.3478,4 -4,4"/>
<!-- n140117118657144 -->
<g id="node1" class="node">
<title>n140117118657144</title>
<polygon fill="none" stroke="#000000" points="98.3478,-36 44.3478,-36 44.3478,0 98.3478,0 98.3478,-36"/>
<text text-anchor="middle" x="71.3478" y="-14.3" font-family="Times,serif" font-size="14.00" fill="#000000">0</text>
</g>
<!-- n140117092247816 -->
<g id="node2" class="node">
<title>n140117092247816</title>
<polygon fill="none" stroke="#000000" points="227.3478,-36 173.3478,-36 173.3478,0 227.3478,0 227.3478,-36"/>
<text text-anchor="middle" x="200.3478" y="-14.3" font-family="Times,serif" font-size="14.00" fill="#000000">1</text>
</g>
<!-- n140117118775704 -->
<g id="node3" class="node">
<title>n140117118775704</title>
<ellipse fill="none" stroke="#000000" cx="192.3478" cy="-116.8973" rx="29.795" ry="29.795"/>
<text text-anchor="middle" x="192.3478" y="-113.1973" font-family="Times,serif" font-size="14.00" fill="#000000">x_[2]</text>
</g>
<!-- n140117118775704&#45;&#45;n140117118657144 -->
<g id="edge1" class="edge">
<title>n140117118775704&#45;&#45;n140117118657144</title>
<path fill="none" stroke="#000000" stroke-dasharray="5,2" d="M169.9926,-96.9477C155.7118,-84.3765 136.6855,-67.9444 119.3478,-54 112.0424,-48.1244 103.941,-41.9306 96.5062,-36.3686"/>
<text text-anchor="middle" x="139.8478" y="-57.8" font-family="Times,serif" font-size="14.00" fill="#000000">0</text>
</g>
<!-- n140117118775704&#45;&#45;n140117092247816 -->
<g id="edge2" class="edge">
<title>n140117118775704&#45;&#45;n140117092247816</title>
<path fill="none" stroke="#000000" d="M194.7697,-86.9565C196.1126,-70.3558 197.738,-50.2617 198.887,-36.0584"/>
<text text-anchor="middle" x="199.8478" y="-57.8" font-family="Times,serif" font-size="14.00" fill="#000000">1</text>
</g>
<!-- n140117118777104 -->
<g id="node4" class="node">
<title>n140117118777104</title>
<ellipse fill="none" stroke="#000000" cx="137.3478" cy="-227.692" rx="29.795" ry="29.795"/>
<text text-anchor="middle" x="137.3478" y="-223.992" font-family="Times,serif" font-size="14.00" fill="#000000">x_[0]</text>
</g>
<!-- n140117118777104&#45;&#45;n140117092247816 -->
<g id="edge4" class="edge">
<title>n140117118777104&#45;&#45;n140117092247816</title>
<path fill="none" stroke="#000000" d="M132.1432,-197.9251C127.3443,-161.2631 124.5052,-98.4 151.3478,-54 156.6452,-45.2375 164.9632,-37.9468 173.252,-32.2706"/>
<text text-anchor="middle" x="140.8478" y="-113.1973" font-family="Times,serif" font-size="14.00" fill="#000000">1</text>
</g>
<!-- n140117118777104&#45;&#45;n140117118775704 -->
<g id="edge3" class="edge">
<title>n140117118777104&#45;&#45;n140117118775704</title>
<path fill="none" stroke="#000000" stroke-dasharray="5,2" d="M150.6617,-200.8717C159.2455,-183.5801 170.3686,-161.1732 178.9658,-143.8547"/>
<text text-anchor="middle" x="170.8478" y="-168.5947" font-family="Times,serif" font-size="14.00" fill="#000000">0</text>
</g>
<!-- n140117118777160 -->
<g id="node5" class="node">
<title>n140117118777160</title>
<ellipse fill="none" stroke="#000000" cx="25.3478" cy="-338.4867" rx="25.1964" ry="25.1964"/>
<text text-anchor="middle" x="25.3478" y="-334.7867" font-family="Times,serif" font-size="14.00" fill="#000000">x[3]</text>
</g>
<!-- n140117118777160&#45;&#45;n140117118657144 -->
<g id="edge5" class="edge">
<title>n140117118777160&#45;&#45;n140117118657144</title>
<path fill="none" stroke="#000000" stroke-dasharray="5,2" d="M22.1114,-313.2654C17.0679,-267.2822 10.0627,-167.1664 32.3478,-87 37.5073,-68.4394 48.6874,-49.5435 57.76,-36.23"/>
<text text-anchor="middle" x="22.8478" y="-168.5947" font-family="Times,serif" font-size="14.00" fill="#000000">0</text>
</g>
<!-- n140117118777160&#45;&#45;n140117118777104 -->
<g id="edge6" class="edge">
<title>n140117118777160&#45;&#45;n140117118777104</title>
<path fill="none" stroke="#000000" d="M30.9303,-313.6645C34.741,-301.128 40.8634,-286.3394 50.3478,-275.5894 66.0894,-257.7471 90.1408,-245.2226 108.9686,-237.4674"/>
<text text-anchor="middle" x="53.8478" y="-279.3894" font-family="Times,serif" font-size="14.00" fill="#000000">1</text>
</g>
<!-- n140117118775424 -->
<g id="node6" class="node">
<title>n140117118775424</title>
<ellipse fill="none" stroke="#000000" cx="71.3478" cy="-116.8973" rx="29.795" ry="29.795"/>
<text text-anchor="middle" x="71.3478" y="-113.1973" font-family="Times,serif" font-size="14.00" fill="#000000">x_[1]</text>
</g>
<!-- n140117118775424&#45;&#45;n140117118657144 -->
<g id="edge7" class="edge">
<title>n140117118775424&#45;&#45;n140117118657144</title>
<path fill="none" stroke="#000000" stroke-dasharray="5,2" d="M71.3478,-86.9565C71.3478,-70.3558 71.3478,-50.2617 71.3478,-36.0584"/>
<text text-anchor="middle" x="74.8478" y="-57.8" font-family="Times,serif" font-size="14.00" fill="#000000">0</text>
</g>
<!-- n140117118775424&#45;&#45;n140117092247816 -->
<g id="edge8" class="edge">
<title>n140117118775424&#45;&#45;n140117092247816</title>
<path fill="none" stroke="#000000" d="M85.7163,-90.4268C93.4764,-78.0685 104.0018,-63.9294 116.3478,-54 133.0387,-40.5761 155.4856,-31.2989 172.9761,-25.5281"/>
<text text-anchor="middle" x="119.8478" y="-57.8" font-family="Times,serif" font-size="14.00" fill="#000000">1</text>
</g>
<!-- n140117118776824 -->
<g id="node7" class="node">
<title>n140117118776824</title>
<ellipse fill="none" stroke="#000000" cx="229.3478" cy="-227.692" rx="29.795" ry="29.795"/>
<text text-anchor="middle" x="229.3478" y="-223.992" font-family="Times,serif" font-size="14.00" fill="#000000">x_[1]</text>
</g>
<!-- n140117118776824&#45;&#45;n140117092247816 -->
<g id="edge10" class="edge">
<title>n140117118776824&#45;&#45;n140117092247816</title>
<path fill="none" stroke="#000000" d="M233.5891,-197.9426C236.7952,-169.2036 239.4105,-124.6201 231.3478,-87 227.4398,-68.7658 218.3292,-49.5303 210.99,-36.0147"/>
<text text-anchor="middle" x="239.8478" y="-113.1973" font-family="Times,serif" font-size="14.00" fill="#000000">1</text>
</g>
<!-- n140117118776824&#45;&#45;n140117118775704 -->
<g id="edge9" class="edge">
<title>n140117118776824&#45;&#45;n140117118775704</title>
<path fill="none" stroke="#000000" stroke-dasharray="5,2" d="M219.8193,-199.1597C214.2951,-182.6176 207.3626,-161.8586 201.8439,-145.333"/>
<text text-anchor="middle" x="215.8478" y="-168.5947" font-family="Times,serif" font-size="14.00" fill="#000000">0</text>
</g>
<!-- n140117118777216 -->
<g id="node8" class="node">
<title>n140117118777216</title>
<ellipse fill="none" stroke="#000000" cx="229.3478" cy="-338.4867" rx="29.795" ry="29.795"/>
<text text-anchor="middle" x="229.3478" y="-334.7867" font-family="Times,serif" font-size="14.00" fill="#000000">x_[0]</text>
</g>
<!-- n140117118777216&#45;&#45;n140117092247816 -->
<g id="edge12" class="edge">
<title>n140117118777216&#45;&#45;n140117092247816</title>
<path fill="none" stroke="#000000" d="M245.3117,-312.9891C254.0001,-297.5857 263.868,-277.1973 268.3478,-257.5894 274.2668,-231.6815 270.8331,-224.2536 268.3478,-197.7947 262.2247,-132.6095 270.7685,-109.6939 236.3478,-54 232.4444,-47.6842 227.2266,-41.6372 221.9773,-36.3626"/>
<text text-anchor="middle" x="269.8478" y="-168.5947" font-family="Times,serif" font-size="14.00" fill="#000000">1</text>
</g>
<!-- n140117118777216&#45;&#45;n140117118776824 -->
<g id="edge11" class="edge">
<title>n140117118777216&#45;&#45;n140117118776824</title>
<path fill="none" stroke="#000000" stroke-dasharray="5,2" d="M229.3478,-308.5041C229.3478,-292.7388 229.3478,-273.4675 229.3478,-257.6986"/>
<text text-anchor="middle" x="232.8478" y="-279.3894" font-family="Times,serif" font-size="14.00" fill="#000000">0</text>
</g>
<!-- n140117118777272 -->
<g id="node9" class="node">
<title>n140117118777272</title>
<ellipse fill="none" stroke="#000000" cx="78.3478" cy="-444.7318" rx="25.1964" ry="25.1964"/>
<text text-anchor="middle" x="78.3478" y="-441.0318" font-family="Times,serif" font-size="14.00" fill="#000000">x[3]</text>
</g>
<!-- n140117118777272&#45;&#45;n140117118775424 -->
<g id="edge13" class="edge">
<title>n140117118777272&#45;&#45;n140117118775424</title>
<path fill="none" stroke="#000000" stroke-dasharray="5,2" d="M77.8043,-419.28C76.5322,-359.7051 73.3656,-211.3981 71.9959,-147.2546"/>
<text text-anchor="middle" x="78.8478" y="-279.3894" font-family="Times,serif" font-size="14.00" fill="#000000">0</text>
</g>
<!-- n140117118777272&#45;&#45;n140117118777216 -->
<g id="edge14" class="edge">
<title>n140117118777272&#45;&#45;n140117118777216</title>
<path fill="none" stroke="#000000" d="M99.3437,-429.9589C126.9771,-410.5158 175.4687,-376.3966 204.7772,-355.7748"/>
<text text-anchor="middle" x="161.8478" y="-390.1841" font-family="Times,serif" font-size="14.00" fill="#000000">1</text>
</g>
<!-- n140117118777328 -->
<g id="node10" class="node">
<title>n140117118777328</title>
<ellipse fill="none" stroke="#000000" cx="43.3478" cy="-546.4273" rx="25.1964" ry="25.1964"/>
<text text-anchor="middle" x="43.3478" y="-542.7273" font-family="Times,serif" font-size="14.00" fill="#000000">x[0]</text>
</g>
<!-- n140117118777328&#45;&#45;n140117118777160 -->
<g id="edge15" class="edge">
<title>n140117118777328&#45;&#45;n140117118777160</title>
<path fill="none" stroke="#000000" stroke-dasharray="5,2" d="M41.1406,-520.9297C37.6765,-480.9119 31.0026,-403.8127 27.5448,-363.8673"/>
<text text-anchor="middle" x="40.8478" y="-441.0318" font-family="Times,serif" font-size="14.00" fill="#000000">0</text>
</g>
<!-- n140117118777328&#45;&#45;n140117118777272 -->
<g id="edge16" class="edge">
<title>n140117118777328&#45;&#45;n140117118777272</title>
<path fill="none" stroke="#000000" d="M51.6423,-522.3269C57.1811,-506.2333 64.4399,-485.1423 69.9915,-469.0117"/>
<text text-anchor="middle" x="66.8478" y="-491.8796" font-family="Times,serif" font-size="14.00" fill="#000000">1</text>
</g>
</g>
</svg>
